<svg width="24" height="24" viewBox="0 0 24 24" fill="none" xmlns="http://www.w3.org/2000/svg">
<path fill-rule="evenodd" clip-rule="evenodd" d="M4.26035 4.26035C4.60748 3.91322 5.1703 3.91322 5.51743 4.26035L12 10.743L18.4826 4.26041C18.8297 3.91327 19.3925 3.91327 19.7396 4.26041C20.0868 4.60754 20.0868 5.17035 19.7396 5.51749L13.2571 12L19.7396 18.4825C20.0867 18.8296 20.0867 19.3925 19.7396 19.7396C19.3925 20.0867 18.8296 20.0867 18.4825 19.7396L12 13.2571L5.51749 19.7396C5.17036 20.0868 4.60754 20.0868 4.26041 19.7396C3.91328 19.3925 3.91328 18.8297 4.26041 18.4826L10.743 12L4.26035 5.51743C3.91322 5.1703 3.91322 4.60748 4.26035 4.26035Z" fill="#373739"/>
</svg>
