<svg width="20" height="20" viewBox="0 0 20 20" fill="none" xmlns="http://www.w3.org/2000/svg">
<path fill-rule="evenodd" clip-rule="evenodd" d="M9.95427 3.54167H12.5457C13.6854 3.54166 14.604 3.54164 15.3265 3.63878C16.0766 3.73962 16.7081 3.95537 17.2097 4.45696C17.7113 4.95856 17.9271 5.59012 18.0279 6.34021C18.125 7.06269 18.125 7.98129 18.125 9.12095V13.3791C18.125 14.5187 18.125 15.4373 18.0279 16.1598C17.9271 16.9099 17.7113 17.5415 17.2097 18.043C16.7081 18.5446 16.0766 18.7604 15.3265 18.8612C14.604 18.9584 13.6854 18.9584 12.5457 18.9583H9.95428C8.81462 18.9584 7.89601 18.9584 7.17354 18.8612C6.42345 18.7604 5.79189 18.5446 5.29029 18.043C4.7887 17.5415 4.57295 16.9099 4.4721 16.1598C4.37497 15.4373 4.37498 14.5187 4.375 13.3791V9.12094C4.37498 7.98129 4.37497 7.06269 4.4721 6.34021C4.57295 5.59012 4.7887 4.95856 5.29029 4.45696C5.79189 3.95537 6.42345 3.73962 7.17354 3.63878C7.89601 3.54164 8.81461 3.54166 9.95427 3.54167ZM7.3401 4.87763C6.72862 4.95984 6.40481 5.11021 6.17418 5.34085C5.94354 5.57148 5.79317 5.89529 5.71096 6.50677C5.62633 7.13623 5.625 7.97049 5.625 9.16667V13.3333C5.625 14.5295 5.62633 15.3638 5.71096 15.9932C5.79317 16.6047 5.94354 16.9285 6.17418 17.1592C6.40481 17.3898 6.72862 17.5402 7.3401 17.6224C7.96956 17.707 8.80382 17.7083 10 17.7083H12.5C13.6962 17.7083 14.5304 17.707 15.1599 17.6224C15.7714 17.5402 16.0952 17.3898 16.3258 17.1592C16.5565 16.9285 16.7068 16.6047 16.789 15.9932C16.8737 15.3638 16.875 14.5295 16.875 13.3333V9.16667C16.875 7.97049 16.8737 7.13623 16.789 6.50677C16.7068 5.89529 16.5565 5.57148 16.3258 5.34085C16.0952 5.11021 15.7714 4.95984 15.1599 4.87763C14.5304 4.793 13.6962 4.79167 12.5 4.79167H10C8.80382 4.79167 7.96956 4.793 7.3401 4.87763Z" fill="white"/>
<path fill-rule="evenodd" clip-rule="evenodd" d="M9.11965 1.04167L12.5 1.04167C14.2259 1.04167 15.625 2.44078 15.625 4.16667H14.375C14.375 3.13114 13.5355 2.29167 12.5 2.29167H9.16667C7.57765 2.29167 6.44876 2.293 5.59237 2.40814C4.75397 2.52086 4.27093 2.73225 3.91825 3.08492C3.56558 3.4376 3.35419 3.92064 3.24147 4.75905C3.12633 5.61543 3.125 6.74432 3.125 8.33334V13.3333C3.125 14.3689 3.96447 15.2083 5 15.2083V16.4583C3.27411 16.4583 1.875 15.0592 1.875 13.3333L1.875 8.28632C1.87499 6.75486 1.87498 5.54183 2.00261 4.59249C2.13397 3.61547 2.41073 2.82468 3.03437 2.20104C3.65801 1.57741 4.4488 1.30064 5.42581 1.16928C6.37516 1.04165 7.58819 1.04166 9.11965 1.04167Z" fill="white"/>
</svg>
