<svg width="65" height="64" viewBox="0 0 65 64" fill="none" xmlns="http://www.w3.org/2000/svg">
<path fill-rule="evenodd" clip-rule="evenodd" d="M59.1666 32C59.1666 46.7276 47.2275 58.6667 32.4999 58.6667C17.7723 58.6667 5.83325 46.7276 5.83325 32C5.83325 17.2724 17.7723 5.33333 32.4999 5.33333C47.2275 5.33333 59.1666 17.2724 59.1666 32ZM43.2475 23.9191C44.0285 24.7002 44.0285 25.9665 43.2475 26.7475L29.9141 40.0809C29.1331 40.8619 27.8668 40.8619 27.0857 40.0809L21.7524 34.7475C20.9713 33.9665 20.9713 32.7002 21.7524 31.9191C22.5334 31.1381 23.7998 31.1381 24.5808 31.9191L28.4999 35.8382L34.4595 29.8787L40.419 23.9191C41.2001 23.1381 42.4664 23.1381 43.2475 23.9191Z" fill="#65DC7F"/>
</svg>
