<svg width="90" height="90" viewBox="0 0 90 90" fill="none" xmlns="http://www.w3.org/2000/svg">
<path d="M85.909 42.9545H69.5453C67.2861 42.9545 65.4543 44.7863 65.4543 47.0455C65.4543 49.3046 67.2861 51.1364 69.5453 51.1364H85.909C88.1681 51.1364 89.9999 49.3046 89.9999 47.0455C89.9999 44.7863 88.1686 42.9545 85.909 42.9545Z" fill="#2D50A7"/>
<path d="M20.4546 42.9545H4.09093C1.83178 42.9545 0 44.7863 0 47.0455C0 49.3046 1.83178 51.1364 4.09093 51.1364H20.4546C22.7138 51.1364 24.5456 49.3046 24.5456 47.0455C24.5456 44.7863 22.7138 42.9545 20.4546 42.9545Z" fill="#73A1FB"/>
<path d="M71.0346 15.2255L59.4634 26.7967C57.8657 28.3939 57.8657 30.9842 59.4634 32.5819C59.8427 32.9624 60.2935 33.2642 60.7899 33.4699C61.2863 33.6756 61.8184 33.7811 62.3557 33.7804C62.8931 33.7812 63.4254 33.6758 63.9219 33.4701C64.4183 33.2644 64.8692 32.9625 65.2485 32.5819L76.8198 21.0107C78.4174 19.4135 78.4174 16.8231 76.8198 15.2255C75.2225 13.6279 72.6322 13.6279 71.0346 15.2255Z" fill="#355EC9"/>
<path d="M45.0002 71.591C42.741 71.591 40.9092 73.4228 40.9092 75.682V83.8638C40.9092 86.123 42.741 87.9548 45.0002 87.9548C47.2593 87.9548 49.0911 86.123 49.0911 83.8638V75.682C49.0911 73.4228 47.2593 71.591 45.0002 71.591ZM24.751 61.5091L13.1802 73.0803C12.8003 73.4601 12.4989 73.9111 12.2933 74.4074C12.0878 74.9037 11.9819 75.4356 11.9819 75.9728C11.9819 76.5101 12.0878 77.042 12.2933 77.5383C12.4989 78.0346 12.8003 78.4856 13.1802 78.8654C13.5597 79.2459 14.0106 79.5476 14.507 79.7532C15.0035 79.9588 15.5356 80.0643 16.073 80.0636C16.6103 80.0643 17.1424 79.9588 17.6388 79.7532C18.1352 79.5476 18.586 79.2459 18.9654 78.8654L30.5361 67.2942C30.916 66.9144 31.2174 66.4634 31.423 65.9671C31.6286 65.4708 31.7344 64.9389 31.7344 64.4016C31.7344 63.8644 31.6286 63.3325 31.423 62.8362C31.2174 62.3399 30.916 61.8889 30.5361 61.5091C28.9389 59.9114 26.3486 59.9114 24.751 61.5091Z" fill="#C4D9FD"/>
<path d="M45.0001 2.04526C42.741 2.04526 40.9092 3.87704 40.9092 6.13619V22.4999C40.9092 24.759 42.741 26.5908 45.0001 26.5908C47.2593 26.5908 49.091 24.759 49.091 22.4999V6.13619C49.091 3.87704 47.2593 2.04526 45.0001 2.04526Z" fill="#3D6DEB"/>
<path d="M18.9659 15.2255C17.3686 13.6279 14.7783 13.6279 13.1807 15.2255C12.8008 15.6053 12.4994 16.0563 12.2938 16.5526C12.0882 17.0489 11.9824 17.5809 11.9824 18.1181C11.9824 18.6553 12.0882 19.1873 12.2938 19.6836C12.4994 20.1799 12.8008 20.6308 13.1807 21.0107L24.7515 32.5819C25.1309 32.9625 25.5817 33.2643 26.0782 33.47C26.5747 33.6756 27.1069 33.7812 27.6443 33.7804C28.1816 33.7811 28.7137 33.6756 29.2101 33.4699C29.7065 33.2642 30.1573 32.9624 30.5366 32.5819C32.1343 30.9847 32.1343 28.3943 30.5366 26.7967L18.9659 15.2255Z" fill="#5286FA"/>
</svg>
