<?xml version="1.0" standalone="no"?>
<!DOCTYPE svg PUBLIC "-//W3C//DTD SVG 20010904//EN"
 "http://www.w3.org/TR/2001/REC-SVG-20010904/DTD/svg10.dtd">
<svg version="1.0" xmlns="http://www.w3.org/2000/svg"
 width="794.000000pt" height="794.000000pt" viewBox="0 0 794.000000 794.000000"
 preserveAspectRatio="xMidYMid meet">

<g transform="translate(0.000000,794.000000) scale(0.100000,-0.100000)"
fill="#000000" stroke="none">
<path d="M4070 6970 c0 -5 11 -10 25 -10 14 0 25 5 25 10 0 6 -11 10 -25 10
-14 0 -25 -4 -25 -10z"/>
<path d="M4135 6970 c-4 -6 7 -10 25 -10 18 0 29 4 25 10 -3 6 -15 10 -25 10
-10 0 -22 -4 -25 -10z"/>
<path d="M4200 6970 c0 -5 11 -10 25 -10 14 0 25 5 25 10 0 6 -11 10 -25 10
-14 0 -25 -4 -25 -10z"/>
<path d="M4270 6971 c0 -10 36 -21 44 -14 3 3 3 10 0 14 -7 12 -44 12 -44 0z"/>
<path d="M3940 6960 c0 -5 11 -10 25 -10 14 0 25 5 25 10 0 6 -11 10 -25 10
-14 0 -25 -4 -25 -10z"/>
<path d="M4000 6960 c0 -5 11 -10 25 -10 14 0 25 5 25 10 0 6 -11 10 -25 10
-14 0 -25 -4 -25 -10z"/>
<path d="M4330 6960 c0 -5 11 -10 25 -10 14 0 25 5 25 10 0 6 -11 10 -25 10
-14 0 -25 -4 -25 -10z"/>
<path d="M4400 6960 c0 -5 12 -10 26 -10 14 0 23 4 19 10 -3 6 -15 10 -26 10
-10 0 -19 -4 -19 -10z"/>
<path d="M3822 6952 c-26 -4 -20 -22 8 -22 20 0 36 16 23 22 -5 2 -18 2 -31 0z"/>
<path d="M3870 6950 c0 -5 11 -10 25 -10 14 0 25 5 25 10 0 6 -11 10 -25 10
-14 0 -25 -4 -25 -10z"/>
<path d="M4465 6950 c3 -5 17 -10 31 -10 14 0 22 4 19 10 -3 6 -17 10 -31 10
-14 0 -22 -4 -19 -10z"/>
<path d="M3758 6943 c-10 -3 -18 -9 -18 -14 0 -12 37 -12 45 0 7 12 -5 19 -27
14z"/>
<path d="M4530 6940 c0 -5 11 -10 25 -10 14 0 25 5 25 10 0 6 -11 10 -25 10
-14 0 -25 -4 -25 -10z"/>
<path d="M4595 6930 c3 -5 17 -10 31 -10 14 0 22 4 19 10 -3 6 -17 10 -31 10
-14 0 -22 -4 -19 -10z"/>
<path d="M3675 6920 c-3 -6 5 -10 19 -10 14 0 28 5 31 10 3 6 -5 10 -19 10
-14 0 -28 -4 -31 -10z"/>
<path d="M4660 6920 c0 -5 11 -10 25 -10 14 0 25 5 25 10 0 6 -11 10 -25 10
-14 0 -25 -4 -25 -10z"/>
<path d="M3615 6909 c-4 -6 -5 -12 -3 -14 7 -7 48 7 48 16 0 13 -37 11 -45 -2z"/>
<path d="M4730 6911 c0 -12 39 -25 48 -16 7 7 -17 25 -35 25 -7 0 -13 -4 -13
-9z"/>
<path d="M3554 6895 c-16 -12 -17 -14 -2 -15 25 0 49 11 42 21 -7 13 -17 11
-40 -6z"/>
<path d="M4790 6890 c0 -5 11 -10 25 -10 14 0 25 5 25 10 0 6 -11 10 -25 10
-14 0 -25 -4 -25 -10z"/>
<path d="M3490 6880 c-8 -5 -12 -12 -8 -15 9 -9 48 4 48 16 0 12 -21 11 -40
-1z"/>
<path d="M4856 6881 c-7 -10 17 -21 42 -21 15 1 14 3 -2 15 -23 17 -33 19 -40
6z"/>
<path d="M3427 6863 c-10 -9 -9 -23 1 -23 5 0 17 7 28 15 19 14 19 14 -2 15
-11 0 -24 -3 -27 -7z"/>
<path d="M4920 6861 c0 -12 39 -25 48 -16 7 7 -17 25 -35 25 -7 0 -13 -4 -13
-9z"/>
<path d="M3357 6844 c-4 -4 -4 -10 -2 -14 6 -10 45 0 45 11 0 10 -33 12 -43 3z"/>
<path d="M4980 6841 c0 -12 39 -25 48 -16 7 7 -17 25 -35 25 -7 0 -13 -4 -13
-9z"/>
<path d="M3300 6820 c-8 -5 -12 -11 -9 -14 7 -8 49 5 49 15 0 12 -21 11 -40
-1z"/>
<path d="M5040 6821 c0 -12 39 -25 48 -16 7 7 -17 25 -35 25 -7 0 -13 -4 -13
-9z"/>
<path d="M3240 6800 c-8 -5 -12 -12 -8 -15 9 -9 48 4 48 16 0 12 -21 11 -40
-1z"/>
<path d="M5100 6801 c0 -12 39 -25 48 -16 7 7 -17 25 -35 25 -7 0 -13 -4 -13
-9z"/>
<path d="M3188 6783 c-10 -3 -18 -10 -18 -18 0 -8 7 -11 20 -8 38 10 35 34 -2
26z"/>
<path d="M5166 6783 c-3 -3 -3 -10 0 -14 7 -12 44 -12 44 0 0 10 -36 21 -44
14z"/>
<path d="M3123 6753 c-7 -2 -13 -9 -13 -14 0 -14 26 -10 40 6 10 12 10 15 -1
14 -8 0 -20 -3 -26 -6z"/>
<path d="M5234 6745 c24 -18 39 -20 34 -2 -3 6 -15 13 -29 15 -23 2 -23 2 -5
-13z"/>
<path d="M3067 6729 c-17 -10 -23 -29 -9 -29 5 0 16 6 27 13 22 17 7 29 -18
16z"/>
<path d="M5290 6730 c0 -5 9 -14 20 -20 16 -8 20 -8 20 4 0 7 -7 17 -16 20
-21 8 -24 8 -24 -4z"/>
<path d="M3007 6699 c-17 -10 -23 -29 -9 -29 5 0 16 6 27 13 22 17 7 29 -18
16z"/>
<path d="M5350 6700 c0 -13 28 -25 38 -16 3 4 0 11 -8 16 -20 13 -30 12 -30 0z"/>
<path d="M2947 6669 c-17 -10 -23 -29 -9 -29 5 0 16 6 27 13 22 17 7 29 -18
16z"/>
<path d="M5414 6665 c22 -17 36 -19 36 -6 0 10 -24 21 -43 21 -7 0 -3 -7 7
-15z"/>
<path d="M2887 6639 c-17 -10 -23 -29 -9 -29 5 0 16 6 27 13 22 17 7 29 -18
16z"/>
<path d="M5470 6635 c14 -16 40 -20 40 -6 0 9 -24 21 -42 21 -6 0 -6 -6 2 -15z"/>
<path d="M5520 6611 c0 -9 24 -21 42 -21 6 0 6 6 -2 15 -14 16 -40 20 -40 6z"/>
<path d="M2823 6603 c-7 -2 -13 -9 -13 -14 0 -14 26 -10 40 6 10 12 10 15 -1
14 -8 0 -20 -3 -26 -6z"/>
<path d="M5580 6580 c0 -13 28 -25 38 -16 3 4 0 11 -8 16 -20 13 -30 12 -30 0z"/>
<path d="M2767 6569 c-24 -14 -11 -32 14 -19 10 6 19 15 19 20 0 13 -10 12
-33 -1z"/>
<path d="M5630 6550 c0 -12 40 -33 48 -25 4 4 -2 13 -12 21 -23 16 -36 18 -36
4z"/>
<path d="M2717 6536 c-18 -14 -22 -26 -9 -26 15 0 45 27 36 33 -5 3 -17 0 -27
-7z"/>
<path d="M5690 6510 c0 -13 28 -25 38 -16 3 4 0 11 -8 16 -20 13 -30 12 -30 0z"/>
<path d="M2660 6495 c-7 -9 -10 -18 -7 -22 8 -7 37 15 37 28 0 14 -16 11 -30
-6z"/>
<path d="M1883 6476 c-66 -31 -129 -96 -150 -156 -16 -46 -18 -47 -59 -48 -52
0 -92 -21 -132 -66 -67 -77 -49 -194 41 -260 28 -21 38 -21 467 -21 l438 0 44
31 c118 86 124 260 11 353 -65 54 -146 65 -222 30 -35 -15 -46 -17 -53 -7 -4
7 -8 16 -8 21 0 20 -91 103 -135 123 -70 33 -170 33 -242 0z m223 -15 c57 -26
117 -82 139 -131 10 -22 23 -39 29 -36 6 2 34 14 62 27 67 29 127 21 186 -24
54 -42 78 -89 78 -154 0 -89 -37 -148 -115 -184 -37 -17 -72 -19 -438 -19
-442 0 -443 0 -493 65 -23 30 -28 48 -28 91 0 90 66 154 158 154 l52 0 11 43
c16 58 85 134 148 163 63 30 152 32 211 5z"/>
<path d="M5746 6482 c-7 -12 19 -35 34 -30 7 2 3 11 -8 21 -11 10 -23 14 -26
9z"/>
<path d="M2615 6459 c-4 -6 -5 -13 -2 -16 7 -7 27 6 27 18 0 12 -17 12 -25 -2z"/>
<path d="M5800 6435 c0 -8 2 -15 4 -15 2 0 11 -3 20 -6 23 -9 20 13 -4 26 -16
9 -20 8 -20 -5z"/>
<path d="M5850 6401 c0 -13 29 -35 37 -28 7 8 -15 37 -28 37 -5 0 -9 -4 -9 -9z"/>
<path d="M4570 6330 c0 -40 4 -70 10 -70 6 0 10 30 10 70 0 40 -4 70 -10 70
-6 0 -10 -30 -10 -70z"/>
<path d="M5900 6361 c0 -13 29 -35 37 -28 7 8 -15 37 -28 37 -5 0 -9 -4 -9 -9z"/>
<path d="M4390 6322 c0 -14 99 -106 107 -99 4 4 -15 30 -42 57 -47 48 -65 59
-65 42z"/>
<path d="M4701 6285 c-40 -43 -51 -65 -32 -65 9 0 91 93 91 104 0 16 -21 2
-59 -39z"/>
<path d="M5950 6315 c0 -8 2 -15 4 -15 2 0 11 -3 20 -6 23 -9 20 13 -4 26 -16
9 -20 8 -20 -5z"/>
<path d="M3905 6265 c-38 -38 -27 -102 21 -124 l24 -11 0 -185 0 -185 -920 0
-920 0 0 -270 0 -269 -29 -15 c-71 -37 -47 -146 33 -146 43 0 76 31 76 73 0
37 -24 77 -46 77 -12 0 -14 41 -14 265 l0 265 910 0 910 0 0 -145 0 -145 503
-2 502 -3 3 -452 2 -452 -29 -15 c-32 -17 -41 -34 -41 -77 0 -40 32 -69 75
-69 46 0 75 29 75 75 0 34 -27 75 -50 75 -7 0 -10 160 -10 460 l0 460 430 0
430 0 0 -146 0 -145 -36 -35 c-32 -29 -36 -38 -30 -66 13 -66 85 -90 131 -43
36 35 32 71 -10 111 l-35 33 0 155 0 156 -440 0 -440 0 0 145 0 145 -505 0
-505 0 0 185 0 185 24 11 c25 12 46 47 46 80 0 31 -44 69 -80 69 -19 0 -40 -9
-55 -25z m95 -15 c32 -32 25 -66 -17 -89 -34 -18 -83 17 -83 58 0 18 39 51 60
51 11 0 29 -9 40 -20z m960 -645 l0 -135 -495 0 -495 0 0 135 0 135 495 0 495
0 0 -135z m-2802 -428 c17 -13 15 -62 -4 -81 -33 -34 -94 -9 -94 38 0 54 53
77 98 43z m3728 -70 c22 -19 26 -29 20 -51 -3 -15 -18 -32 -31 -38 -34 -15
-72 3 -81 38 -6 22 -2 32 20 51 15 13 31 23 36 23 5 0 21 -10 36 -23z m-878
-609 c17 -17 15 -64 -4 -82 -34 -34 -94 -9 -94 39 0 13 7 31 16 39 18 19 65
21 82 4z"/>
<path d="M6000 6274 c0 -13 65 -74 79 -74 8 0 -2 17 -25 40 -37 37 -54 48 -54
34z"/>
<path d="M6090 6181 c0 -13 29 -35 37 -28 7 8 -15 37 -28 37 -5 0 -9 -4 -9 -9z"/>
<path d="M4315 6140 c3 -5 37 -10 76 -10 39 0 69 4 69 10 0 6 -32 10 -76 10
-47 0 -73 -4 -69 -10z"/>
<path d="M4695 6140 c3 -5 35 -10 70 -10 35 0 67 5 70 10 4 6 -22 10 -70 10
-48 0 -74 -4 -70 -10z"/>
<path d="M6136 6142 c-3 -5 3 -17 14 -27 17 -15 20 -16 20 -3 0 19 -26 42 -34
30z"/>
<path d="M6180 6088 c0 -19 26 -42 34 -30 3 5 -3 17 -14 27 -17 15 -20 16 -20
3z"/>
<path d="M4430 6015 c-24 -24 -40 -48 -37 -52 4 -4 31 16 60 45 30 31 45 52
36 52 -8 0 -35 -20 -59 -45z"/>
<path d="M4660 6052 c0 -14 89 -96 97 -89 4 4 -13 28 -37 52 -42 43 -60 54
-60 37z"/>
<path d="M6220 6038 c0 -9 8 -23 18 -30 9 -7 22 -22 28 -33 11 -20 34 -33 34
-18 0 4 -18 28 -40 53 -26 30 -40 39 -40 28z"/>
<path d="M4570 5956 c0 -44 4 -76 10 -76 6 0 10 30 10 69 0 39 -4 73 -10 76
-6 4 -10 -22 -10 -69z"/>
<path d="M6304 5924 c3 -9 6 -18 6 -20 0 -2 7 -4 15 -4 13 0 14 4 5 20 -13 24
-35 27 -26 4z"/>
<path d="M6330 5883 c0 -4 7 -17 15 -27 17 -23 34 -13 19 11 -12 19 -34 29
-34 16z"/>
<path d="M6370 5823 c0 -5 4 -15 10 -23 11 -18 25 -7 17 15 -6 15 -27 21 -27
8z"/>
<path d="M6400 5772 c0 -5 6 -17 14 -28 19 -25 31 -12 14 15 -13 21 -28 28
-28 13z"/>
<path d="M6430 5714 c0 -15 22 -44 31 -39 11 7 -7 45 -21 45 -6 0 -10 -3 -10
-6z"/>
<path d="M6460 5652 c0 -5 7 -17 15 -28 15 -19 20 -8 9 20 -6 17 -24 22 -24 8z"/>
<path d="M6490 5591 c0 -19 12 -41 20 -36 10 6 1 45 -11 45 -5 0 -9 -4 -9 -9z"/>
<path d="M6510 5525 c0 -8 5 -15 10 -15 6 0 10 7 10 15 0 8 -4 15 -10 15 -5 0
-10 -7 -10 -15z"/>
<path d="M2810 5270 c0 -133 4 -210 10 -210 6 0 10 77 10 210 0 133 -4 210
-10 210 -6 0 -10 -77 -10 -210z"/>
<path d="M1580 5433 c0 -4 17 -24 37 -45 l37 -38 -39 -40 c-51 -52 -37 -66 15
-15 l40 39 40 -39 c52 -51 66 -37 15 15 l-39 40 39 40 c51 52 37 66 -15 15
l-40 -39 -38 37 c-37 36 -52 45 -52 30z"/>
<path d="M6526 5385 c-52 -18 -86 -44 -111 -83 -15 -24 -25 -30 -40 -26 -130
41 -235 -25 -235 -147 0 -64 24 -110 72 -139 31 -19 51 -20 343 -20 293 0 312
1 343 20 34 21 62 71 62 111 0 62 -66 129 -127 129 -25 0 -33 6 -48 41 -24 53
-85 104 -140 118 -55 14 -71 13 -119 -4z m109 -16 c59 -15 121 -70 136 -120
11 -35 15 -39 46 -39 49 0 88 -24 108 -66 22 -47 8 -103 -34 -133 -28 -20 -43
-21 -331 -21 -252 0 -306 3 -331 15 -94 49 -91 203 5 249 44 21 86 20 132 -1
22 -11 39 -14 41 -8 18 55 64 97 131 121 46 16 44 16 97 3z"/>
<path d="M2710 5170 c0 -67 4 -110 10 -110 6 0 10 43 10 110 0 67 -4 110 -10
110 -6 0 -10 -43 -10 -110z"/>
<path d="M2900 5170 c0 -67 4 -110 10 -110 6 0 10 43 10 110 0 67 -4 110 -10
110 -6 0 -10 -43 -10 -110z"/>
<path d="M4290 5125 c0 -97 4 -155 10 -155 6 0 10 58 10 155 0 97 -4 155 -10
155 -6 0 -10 -58 -10 -155z"/>
<path d="M5470 5126 c0 -66 4 -117 10 -121 6 -4 10 37 10 114 0 74 -4 121 -10
121 -6 0 -10 -45 -10 -114z"/>
<path d="M4080 5100 c0 -67 4 -110 10 -110 6 0 10 43 10 110 0 67 -4 110 -10
110 -6 0 -10 -43 -10 -110z"/>
<path d="M5660 5096 c0 -47 5 -88 10 -91 6 -4 10 27 10 84 0 54 -4 91 -10 91
-6 0 -10 -35 -10 -84z"/>
<path d="M4180 5060 c0 -40 4 -70 10 -70 6 0 10 30 10 70 0 40 -4 70 -10 70
-6 0 -10 -30 -10 -70z"/>
<path d="M5570 5055 c0 -30 5 -55 10 -55 6 0 10 25 10 55 0 30 -4 55 -10 55
-5 0 -10 -25 -10 -55z"/>
<path d="M3913 4940 c-101 -14 -251 -58 -317 -92 -77 -41 -181 -145 -223 -223
-82 -155 -113 -311 -120 -602 -7 -291 10 -439 73 -616 37 -103 78 -170 150
-247 99 -105 196 -148 392 -176 357 -50 612 60 737 319 89 185 120 382 112
712 -4 171 -10 242 -27 320 -71 329 -229 526 -475 589 -77 19 -222 27 -302 16z
m286 -45 c99 -24 192 -78 264 -155 78 -82 117 -148 156 -265 54 -163 65 -253
65 -525 0 -271 -10 -356 -64 -522 -65 -201 -173 -322 -346 -384 -86 -32 -113
-30 -44 2 229 107 345 342 369 753 36 610 -120 983 -459 1092 -69 22 -31 25
59 4z m-259 -384 c0 -5 -7 -14 -16 -22 -47 -39 -71 -134 -85 -339 -23 -358 12
-661 86 -730 31 -29 23 -43 -18 -34 -74 16 -113 75 -139 209 -18 95 -18 613 0
710 15 83 53 167 85 188 35 23 87 34 87 18z m106 -85 c43 -95 49 -151 49 -481
0 -332 -6 -388 -51 -477 -13 -26 -28 -49 -33 -52 -17 -11 -61 16 -81 49 -44
71 -52 135 -57 431 -7 375 10 503 77 575 25 26 32 29 51 19 11 -7 32 -35 45
-64z"/>
<path d="M2510 4905 c-7 -8 -29 -15 -49 -15 l-36 -1 -387 -567 -387 -567 -1
-187 0 -188 35 0 c19 0 35 -4 35 -10 0 -6 120 -10 340 -10 l340 0 0 -174 0
-173 61 -7 c34 -3 174 -6 310 -6 l249 0 0 180 0 180 100 0 100 0 0 210 0 210
-105 0 -105 0 0 570 0 570 -244 0 c-204 0 -246 -2 -256 -15z m470 -585 l0
-570 -40 0 -40 0 0 570 0 570 40 0 40 0 0 -570z m-572 -137 l-3 -68 -124 -182
-124 -183 -39 0 -38 0 125 188 c69 103 140 215 157 250 17 34 35 62 41 62 5 0
8 -28 5 -67z m-11 -400 c-3 -2 -44 -3 -91 -1 l-87 3 88 129 88 130 3 -129 c1
-70 1 -130 -1 -132z m793 -218 l0 -175 -40 0 -40 0 0 175 0 175 40 0 40 0 0
-175z m-210 -360 l0 -175 -40 0 -40 0 0 175 0 175 40 0 40 0 0 -175z"/>
<path d="M5610 4906 c-6 -8 -28 -16 -47 -18 -36 -3 -41 -10 -425 -571 l-388
-568 0 -185 0 -184 34 0 c19 0 38 -4 41 -10 4 -6 128 -10 341 -10 l334 0 0
-174 0 -173 61 -7 c34 -3 174 -6 310 -6 l249 0 0 180 0 180 91 0 c66 0 94 4
105 15 12 11 14 49 12 207 l-3 193 -102 3 -103 3 0 569 0 570 -249 0 c-204 0
-251 -3 -261 -14z m478 -583 l-3 -568 -42 -3 -43 -3 0 570 0 571 45 0 45 0 -2
-567z m-578 -138 l0 -64 -122 -183 c-120 -179 -124 -183 -160 -186 -21 -2 -38
-1 -38 2 0 3 57 92 128 198 70 106 138 217 151 246 14 28 28 52 33 52 4 0 8
-29 8 -65z m-8 -270 l-3 -135 -90 0 -90 0 92 135 c51 74 93 135 93 135 1 0 0
-61 -2 -135z m788 -351 l0 -175 -37 3 -38 3 -3 173 -2 172 40 0 40 0 0 -176z
m-202 -361 l2 -173 -45 0 -45 0 0 168 c0 93 3 172 7 176 4 4 23 6 43 4 l35 -3
3 -172z"/>
<path d="M740 4900 c0 -6 85 -10 235 -10 150 0 235 4 235 10 0 6 -85 10 -235
10 -150 0 -235 -4 -235 -10z"/>
<path d="M1315 4900 c-4 -7 160 -10 485 -10 325 0 489 3 485 10 -4 6 -177 10
-485 10 -308 0 -481 -4 -485 -10z"/>
<path d="M6640 4610 c0 -65 4 -99 10 -95 6 3 10 46 10 95 0 49 -4 92 -10 95
-6 4 -10 -30 -10 -95z"/>
<path d="M510 4690 c0 -6 28 -10 65 -10 37 0 65 4 65 10 0 6 -28 10 -65 10
-37 0 -65 -4 -65 -10z"/>
<path d="M740 4690 c0 -14 1376 -14 1385 0 4 7 -228 10 -689 10 -457 0 -696
-3 -696 -10z"/>
<path d="M6390 4602 c0 -4 32 -39 70 -77 39 -38 70 -63 70 -54 0 8 -28 43 -63
77 -60 59 -77 71 -77 54z"/>
<path d="M6825 4540 c-38 -38 -66 -72 -62 -76 9 -10 141 120 136 135 -2 6 -35
-20 -74 -59z"/>
<path d="M880 4480 c0 -6 137 -10 390 -10 253 0 390 4 390 10 0 6 -137 10
-390 10 -253 0 -390 -4 -390 -10z"/>
<path d="M1825 4480 c-4 -6 28 -10 90 -10 62 0 94 4 90 10 -3 6 -44 10 -90 10
-46 0 -87 -4 -90 -10z"/>
<path d="M6290 4350 c0 -6 38 -10 95 -10 57 0 95 4 95 10 0 6 -38 10 -95 10
-57 0 -95 -4 -95 -10z"/>
<path d="M6810 4350 c0 -6 38 -10 95 -10 57 0 95 4 95 10 0 6 -38 10 -95 10
-57 0 -95 -4 -95 -10z"/>
<path d="M6455 4170 c-38 -38 -63 -70 -54 -70 19 0 133 114 128 129 -2 6 -35
-20 -74 -59z"/>
<path d="M6760 4232 c0 -4 32 -39 70 -77 39 -38 70 -63 70 -54 0 8 -28 43 -63
77 -60 59 -77 71 -77 54z"/>
<path d="M1151 4181 c-7 -5 -9 -11 -4 -14 5 -3 15 -2 22 2 7 5 9 11 4 14 -5 3
-15 2 -22 -2z"/>
<path d="M6640 4090 c0 -65 4 -99 10 -95 6 3 10 46 10 95 0 49 -4 92 -10 95
-6 4 -10 -30 -10 -95z"/>
<path d="M1085 4160 c-3 -5 3 -10 14 -10 11 0 23 5 26 10 3 6 -3 10 -14 10
-11 0 -23 -4 -26 -10z"/>
<path d="M1039 4134 c-12 -14 -11 -16 5 -13 11 2 21 10 24 17 5 17 -13 15 -29
-4z"/>
<path d="M975 4080 c-27 -28 -34 -40 -23 -40 9 0 19 9 23 19 3 11 15 23 26 26
10 4 19 13 19 21 0 20 -1 19 -45 -26z"/>
<path d="M916 4014 c-9 -22 3 -32 14 -14 12 19 12 30 1 30 -5 0 -12 -7 -15
-16z"/>
<path d="M880 3961 c-6 -13 -6 -22 -1 -26 9 -5 31 24 31 39 0 14 -20 4 -30
-13z"/>
<path d="M853 3905 c-8 -22 6 -33 17 -15 13 20 12 30 0 30 -6 0 -13 -7 -17
-15z"/>
<path d="M838 3864 c-5 -4 -8 -16 -8 -28 0 -14 3 -17 11 -9 6 6 9 19 7 28 -1
9 -6 13 -10 9z"/>
<path d="M815 3797 c-4 -10 -5 -21 -1 -24 10 -10 18 4 13 24 -4 17 -4 17 -12
0z"/>
<path d="M1140 3716 c0 -44 4 -76 10 -76 6 0 10 30 10 69 0 39 -4 73 -10 76
-6 4 -10 -22 -10 -69z"/>
<path d="M797 3729 c-3 -13 -1 -19 6 -16 15 5 22 37 9 37 -5 0 -12 -9 -15 -21z"/>
<path d="M960 3702 c0 -14 85 -92 100 -92 8 0 -8 23 -35 50 -47 48 -65 59 -65
42z"/>
<path d="M1271 3666 c-24 -24 -42 -49 -40 -55 2 -6 29 13 59 44 31 32 48 55
39 55 -8 0 -34 -20 -58 -44z"/>
<path d="M787 3670 c-3 -11 -1 -20 4 -20 5 0 9 2 9 4 0 2 3 11 6 20 3 9 2 16
-4 16 -5 0 -12 -9 -15 -20z"/>
<path d="M780 3610 c0 -11 5 -20 10 -20 6 0 10 9 10 20 0 11 -4 20 -10 20 -5
0 -10 -9 -10 -20z"/>
<path d="M6807 3612 c-4 -5 9 -24 28 -42 19 -19 35 -38 35 -44 0 -6 -17 -27
-37 -48 -24 -24 -32 -38 -22 -38 8 0 30 16 49 35 l34 35 38 -37 c49 -48 63
-34 15 15 l-37 38 35 34 c19 19 35 41 35 49 0 10 -14 2 -38 -22 -21 -20 -42
-37 -47 -37 -5 0 -26 16 -46 36 -20 20 -39 32 -42 26z"/>
<path d="M780 3550 c0 -11 5 -20 10 -20 6 0 10 9 10 20 0 11 -4 20 -10 20 -5
0 -10 -9 -10 -20z"/>
<path d="M890 3530 c0 -6 30 -10 70 -10 40 0 70 4 70 10 0 6 -30 10 -70 10
-40 0 -70 -4 -70 -10z"/>
<path d="M1265 3530 c-4 -6 22 -10 69 -10 44 0 76 4 76 10 0 6 -30 10 -69 10
-39 0 -73 -4 -76 -10z"/>
<path d="M780 3490 c0 -11 5 -20 10 -20 6 0 10 9 10 20 0 11 -4 20 -10 20 -5
0 -10 -9 -10 -20z"/>
<path d="M784 3434 c3 -9 6 -21 6 -27 0 -8 3 -8 10 -1 12 12 3 44 -12 44 -6 0
-7 -7 -4 -16z"/>
<path d="M1005 3400 c-27 -27 -46 -53 -42 -57 8 -7 107 85 107 99 0 17 -18 6
-65 -42z"/>
<path d="M1230 3439 c0 -19 85 -102 99 -98 6 2 -13 29 -44 59 -32 31 -55 48
-55 39z"/>
<path d="M1140 3334 c0 -47 4 -73 10 -69 6 3 10 37 10 76 0 39 -4 69 -10 69
-6 0 -10 -32 -10 -76z"/>
<path d="M790 3383 c0 -14 19 -38 25 -32 8 8 -5 39 -16 39 -5 0 -9 -3 -9 -7z"/>
<path d="M812 3313 c2 -9 8 -18 15 -20 7 -3 9 3 6 16 -6 25 -26 28 -21 4z"/>
<path d="M830 3273 c0 -19 11 -43 21 -43 13 0 11 14 -6 36 -8 10 -15 14 -15 7z"/>
<path d="M850 3213 c0 -5 4 -15 10 -23 11 -18 25 -7 17 15 -6 15 -27 21 -27 8z"/>
<path d="M6280 3190 c0 -6 92 -10 255 -10 163 0 255 4 255 10 0 6 -92 10 -255
10 -163 0 -255 -4 -255 -10z"/>
<path d="M6860 3190 c0 -6 72 -10 195 -10 123 0 195 4 195 10 0 6 -72 10 -195
10 -123 0 -195 -4 -195 -10z"/>
<path d="M880 3162 c0 -11 22 -32 32 -32 5 0 4 9 -2 20 -11 20 -30 28 -30 12z"/>
<path d="M920 3114 c0 -17 18 -36 30 -32 7 2 4 10 -9 22 -12 11 -21 15 -21 10z"/>
<path d="M1500 3093 c0 -4 17 -24 37 -45 l37 -38 -39 -40 c-51 -52 -37 -66 15
-15 l40 39 40 -39 c52 -51 66 -37 15 15 l-39 40 39 40 c51 52 37 66 -15 15
l-40 -39 -38 37 c-37 36 -52 45 -52 30z"/>
<path d="M962 3058 c3 -7 13 -15 24 -17 16 -3 17 -1 5 13 -16 19 -34 21 -29 4z"/>
<path d="M1005 3020 c3 -5 10 -10 16 -10 5 0 9 5 9 10 0 6 -7 10 -16 10 -8 0
-12 -4 -9 -10z"/>
<path d="M6285 2990 c-4 -6 13 -10 45 -10 32 0 49 4 45 10 -3 6 -24 10 -45 10
-21 0 -42 -4 -45 -10z"/>
<path d="M6445 2990 c-4 -7 178 -10 539 -10 357 0 546 3 546 10 0 7 -186 10
-539 10 -349 0 -542 -4 -546 -10z"/>
<path d="M1065 2761 c-37 -16 -81 -58 -103 -97 -7 -13 -13 -13 -46 1 -99 41
-216 -39 -216 -148 0 -49 31 -109 72 -139 33 -23 37 -23 335 -26 336 -3 356 0
393 60 25 41 26 100 3 139 -18 31 -85 69 -120 69 -14 0 -24 9 -31 28 -37 106
-179 162 -287 113z m170 -20 c50 -23 83 -58 100 -108 12 -36 16 -38 56 -40 36
-1 49 -8 76 -37 37 -40 42 -79 17 -127 -28 -55 -54 -59 -366 -59 -250 0 -287
2 -317 18 -100 50 -106 190 -11 246 41 24 110 25 145 2 23 -15 29 -16 36 -5 5
8 9 17 9 21 0 3 12 21 27 39 55 65 151 86 228 50z"/>
<path d="M6280 2770 c0 -7 147 -10 420 -10 273 0 420 3 420 10 0 7 -147 10
-420 10 -273 0 -420 -3 -420 -10z"/>
<path d="M7230 2770 c0 -6 30 -10 70 -10 40 0 70 4 70 10 0 6 -30 10 -70 10
-40 0 -70 -4 -70 -10z"/>
<path d="M1772 2408 l3 -353 2180 0 2180 0 3 353 2 352 -2185 0 -2185 0 2
-352z m4348 2 l0 -330 -2165 0 -2165 0 0 330 0 330 2165 0 2165 0 0 -330z"/>
<path d="M4530 2500 c0 -18 39 -31 60 -20 11 6 20 15 20 20 0 6 -9 5 -20 -2
-16 -10 -24 -10 -40 0 -11 7 -20 8 -20 2z"/>
<path d="M2749 2481 c-31 -25 -34 -98 -5 -130 25 -28 86 -29 111 -1 16 17 16
20 2 20 -9 0 -19 -4 -22 -10 -12 -19 -63 -11 -79 12 -32 45 -7 108 43 108 15
0 32 -5 39 -12 6 -6 15 -8 19 -4 12 12 -27 36 -58 36 -15 0 -37 -9 -50 -19z"/>
<path d="M2890 2450 c0 -5 9 -10 20 -10 18 0 20 -7 20 -55 0 -30 5 -55 10 -55
6 0 10 25 10 55 0 48 2 55 20 55 11 0 20 5 20 10 0 6 -22 10 -50 10 -27 0 -50
-4 -50 -10z"/>
<path d="M3010 2375 c0 -50 4 -85 10 -85 6 0 10 10 10 23 0 19 5 22 37 22 29
0 40 5 52 26 29 53 -14 114 -65 90 -15 -6 -24 -7 -24 -1 0 6 -4 10 -10 10 -6
0 -10 -35 -10 -85z m90 44 c7 -11 9 -32 6 -45 -5 -18 -13 -24 -35 -24 -29 0
-41 15 -41 49 0 41 52 56 70 20z"/>
<path d="M3175 2445 c-19 -14 -18 -15 15 -12 26 1 35 -2 38 -15 3 -15 -4 -18
-33 -18 -24 0 -38 -5 -42 -16 -11 -30 11 -49 61 -50 l46 -2 0 37 c0 73 -41
110 -85 76z m65 -63 c0 -15 -24 -32 -47 -32 -24 0 -32 25 -10 33 20 9 57 8 57
-1z"/>
<path d="M3290 2396 c0 -37 4 -66 10 -66 6 0 10 11 10 25 0 21 5 25 30 25 25
0 30 -4 30 -25 0 -14 5 -25 10 -25 6 0 10 28 10 65 0 37 -4 65 -10 65 -5 0
-10 -13 -10 -30 0 -27 -3 -30 -30 -30 -25 0 -30 4 -30 24 0 14 -4 28 -10 31
-6 4 -10 -18 -10 -59z"/>
<path d="M3428 2454 c-5 -4 -8 -34 -8 -66 0 -72 15 -76 56 -15 l29 42 3 -42
c5 -68 22 -50 22 24 l0 66 -21 -19 c-11 -10 -28 -31 -37 -46 -23 -39 -30 -35
-34 18 -2 25 -6 42 -10 38z"/>
<path d="M3570 2396 l0 -66 49 0 c39 0 51 -4 54 -17 3 -10 3 2 1 26 -2 24 -4
61 -4 82 0 22 -4 39 -10 39 -5 0 -10 -25 -10 -55 0 -54 0 -55 -30 -55 -29 0
-30 1 -30 49 0 28 -4 53 -10 56 -6 4 -10 -18 -10 -59z"/>
<path d="M3724 2445 c-18 -13 -16 -14 21 -12 30 2 40 -2 43 -15 3 -14 -3 -18
-31 -18 -42 0 -66 -24 -50 -48 7 -12 25 -17 57 -18 l46 -2 0 42 c0 72 -40 105
-86 71z m64 -72 c-4 -21 -45 -30 -62 -13 -14 14 8 30 42 30 17 0 23 -5 20 -17z"/>
<path d="M3913 2395 c0 -38 2 -58 4 -42 4 23 9 27 39 27 30 0 34 -3 34 -25 0
-14 5 -25 10 -25 6 0 10 28 10 65 0 37 -4 65 -10 65 -5 0 -10 -14 -10 -31 0
-28 -2 -30 -32 -27 -27 2 -34 8 -39 33 -4 19 -7 4 -6 -40z"/>
<path d="M4062 2444 c-26 -18 -30 -74 -6 -98 19 -20 68 -21 84 -2 10 13 5 15
-31 13 -34 -2 -44 2 -47 16 -3 14 4 17 42 17 39 0 46 3 46 19 0 20 -34 51 -55
51 -6 0 -21 -7 -33 -16z m56 -16 c20 -20 14 -28 -23 -28 -19 0 -35 4 -35 8 0
12 22 32 35 32 6 0 16 -5 23 -12z"/>
<path d="M4248 2454 c-12 -11 -10 -124 2 -124 6 0 10 11 10 25 0 22 4 25 35
25 31 0 35 -3 35 -25 0 -14 5 -25 10 -25 6 0 10 26 10 59 0 33 -4 63 -10 66
-6 4 -10 -7 -10 -24 0 -29 -3 -31 -34 -31 -31 0 -35 3 -38 31 -2 17 -6 27 -10
23z"/>
<path d="M4394 2445 c-18 -13 -16 -14 21 -12 30 1 40 -2 43 -15 2 -13 -5 -17
-35 -20 -35 -3 -38 -5 -38 -33 0 -29 2 -30 48 -31 l47 -2 0 48 c0 71 -39 101
-86 65z m64 -72 c-4 -22 -58 -31 -58 -10 0 20 10 27 37 27 18 0 24 -5 21 -17z"/>
<path d="M4518 2454 c-5 -4 -8 -34 -8 -66 0 -71 13 -74 55 -15 l30 42 3 -42
c5 -68 22 -50 22 22 0 36 -3 65 -7 65 -5 -1 -24 -22 -43 -48 l-35 -47 -5 48
c-3 27 -8 45 -12 41z"/>
<path d="M4666 2413 c-2 -27 -7 -66 -10 -88 -2 -22 -2 -30 0 -17 5 19 12 22
55 22 42 0 49 -3 49 -20 0 -11 5 -20 10 -20 6 0 10 11 10 24 0 14 -4 28 -10
31 -5 3 -10 31 -10 61 l0 54 -44 0 -44 0 -6 -47z m74 -18 c0 -44 -1 -45 -31
-45 -24 0 -30 3 -25 16 3 9 6 29 6 45 0 24 4 29 25 29 23 0 25 -4 25 -45z"/>
<path d="M4816 2445 c-23 -24 -28 -52 -14 -82 14 -30 36 -38 74 -29 37 10 29
23 -13 22 -28 -1 -38 3 -41 17 -3 14 4 17 42 17 52 0 60 16 26 50 -24 24 -53
26 -74 5z m62 -17 c20 -20 14 -28 -23 -28 -22 0 -35 5 -35 13 0 28 36 37 58
15z"/>
<path d="M4940 2396 c0 -37 4 -66 10 -66 6 0 10 11 10 25 0 21 5 25 30 25 25
0 30 -4 30 -25 0 -14 5 -25 10 -25 6 0 10 28 10 65 0 37 -4 65 -10 65 -5 0
-10 -13 -10 -30 0 -27 -3 -30 -30 -30 -25 0 -30 4 -30 24 0 14 -4 28 -10 31
-6 4 -10 -18 -10 -59z"/>
<path d="M5090 2445 c-11 -13 -8 -15 21 -13 25 2 34 -1 37 -14 2 -13 -5 -17
-35 -20 -33 -3 -38 -7 -41 -30 -4 -30 16 -40 70 -35 27 2 28 4 28 54 0 41 -4
54 -19 63 -27 14 -46 13 -61 -5z m58 -72 c-4 -22 -58 -31 -58 -10 0 20 10 27
37 27 18 0 24 -5 21 -17z"/>
<path d="M6715 2471 c-36 -21 -85 -77 -85 -96 0 -7 -17 -16 -37 -20 -50 -9
-103 -63 -103 -104 0 -44 25 -88 60 -106 42 -21 504 -22 555 -1 45 19 75 69
75 124 0 58 -25 98 -79 124 -39 19 -49 20 -89 9 -39 -10 -46 -10 -58 6 -7 10
-14 21 -14 25 0 4 -20 19 -43 33 -55 31 -136 34 -182 6z m171 -26 c23 -14 48
-38 56 -55 15 -35 14 -35 61 -15 49 20 91 10 127 -32 35 -39 41 -103 14 -141
-34 -48 -56 -52 -314 -52 -262 0 -285 4 -308 55 -18 40 -15 62 16 96 21 24 36
31 64 31 33 0 38 4 48 32 10 33 48 74 85 94 36 20 105 14 151 -13z"/>
<path d="M6754 2005 c-9 -22 1 -29 15 -11 8 10 9 16 1 21 -5 3 -13 -1 -16 -10z"/>
<path d="M6716 1961 c-10 -11 -13 -22 -8 -25 5 -3 17 3 26 13 10 11 13 22 8
25 -5 3 -17 -3 -26 -13z"/>
<path d="M6667 1919 c-24 -14 -11 -32 14 -19 10 6 19 15 19 20 0 13 -10 12
-33 -1z"/>
<path d="M5846 1903 c-3 -3 -3 -10 0 -14 7 -12 34 -11 34 0 0 11 -26 22 -34
14z"/>
<path d="M5890 1881 c0 -12 39 -25 48 -16 7 7 -17 25 -35 25 -7 0 -13 -4 -13
-9z"/>
<path d="M6613 1883 c-7 -2 -13 -9 -13 -14 0 -14 26 -10 40 6 10 12 10 15 -1
14 -8 0 -20 -3 -26 -6z"/>
<path d="M5950 1861 c0 -12 39 -25 48 -16 7 7 -17 25 -35 25 -7 0 -13 -4 -13
-9z"/>
<path d="M6550 1850 c-8 -5 -12 -12 -8 -15 9 -9 48 4 48 16 0 12 -21 11 -40
-1z"/>
<path d="M6020 1841 c0 -12 29 -23 42 -15 6 4 5 10 -3 15 -18 11 -39 11 -39 0z"/>
<path d="M6086 1833 c-3 -3 -3 -10 0 -14 7 -12 44 -12 44 0 0 10 -36 21 -44
14z"/>
<path d="M6486 1831 c-14 -5 -16 -10 -8 -15 16 -9 54 3 47 15 -7 10 -13 10
-39 0z"/>
<path d="M6145 1810 c3 -5 17 -10 31 -10 14 0 22 4 19 10 -3 6 -17 10 -31 10
-14 0 -22 -4 -19 -10z"/>
<path d="M6216 1813 c-3 -3 -3 -10 0 -14 7 -12 44 -12 44 0 0 10 -36 21 -44
14z"/>
<path d="M6410 1810 c0 -5 11 -10 25 -10 14 0 25 5 25 10 0 6 -11 10 -25 10
-14 0 -25 -4 -25 -10z"/>
<path d="M6280 1800 c0 -5 11 -10 25 -10 14 0 25 5 25 10 0 6 -11 10 -25 10
-14 0 -25 -4 -25 -10z"/>
<path d="M6345 1800 c3 -5 15 -10 25 -10 10 0 22 5 25 10 4 6 -7 10 -25 10
-18 0 -29 -4 -25 -10z"/>
</g>
</svg>
