<?xml version="1.0" encoding="UTF-8"?>
<!DOCTYPE svg PUBLIC "-//W3C//DTD SVG 1.1//EN" "http://www.w3.org/Graphics/SVG/1.1/DTD/svg11.dtd">
<svg xmlns="http://www.w3.org/2000/svg" version="1.1" width="90px" height="90px" style="shape-rendering:geometricPrecision; text-rendering:geometricPrecision; image-rendering:optimizeQuality; fill-rule:evenodd; clip-rule:evenodd" xmlns:xlink="http://www.w3.org/1999/xlink">
<g><path style="opacity:0.992" fill="#ed3340" d="M 39.5,0.5 C 43.9362,0.210111 48.2695,0.710111 52.5,2C 62.3379,7.08245 71.6712,12.9158 80.5,19.5C 82.1938,21.5543 83.3605,23.8877 84,26.5C 84.6667,38.5 84.6667,50.5 84,62.5C 82.661,66.8375 80.161,70.3375 76.5,73C 67.9516,78.7751 58.9516,83.7751 49.5,88C 45.0745,88.7907 40.7411,88.4573 36.5,87C 26.6621,81.9175 17.3288,76.0842 8.5,69.5C 6.80616,67.4457 5.63949,65.1123 5,62.5C 4.33333,50.5 4.33333,38.5 5,26.5C 7.67521,20.0555 12.1752,15.2221 18.5,12C 25.5937,8.12409 32.5937,4.29076 39.5,0.5 Z M 43.5,19.5 C 45.0174,19.5106 46.1841,20.1772 47,21.5C 47.6667,31.1667 47.6667,40.8333 47,50.5C 45.3333,51.8333 43.6667,51.8333 42,50.5C 41.3333,40.8333 41.3333,31.1667 42,21.5C 42.7172,20.9558 43.2172,20.2891 43.5,19.5 Z M 42.5,58.5 C 47.2137,58.2008 48.8804,60.2008 47.5,64.5C 44.1438,67.1709 41.8105,66.3376 40.5,62C 40.9783,60.6974 41.645,59.5307 42.5,58.5 Z"/></g>
</svg>
